# Blender 4.0.2
# www.blender.org
mtllib coin.mtl
o diamond
v -0.516625 0.739372 -0.516903
v 0.000292 0.739372 -0.731017
v 0.517209 0.739372 -0.516903
v 0.731323 0.739372 0.000014
v 0.517209 0.739372 0.516931
v 0.000292 0.739372 0.731045
v -0.516625 0.739372 0.516931
v -0.730739 0.739372 0.000014
v 0.000292 0.142168 0.000014
v -0.461300 0.935629 0.191211
v 0.191489 0.935629 -0.461578
v -0.270102 0.994369 -0.270380
v 0.191490 0.935629 0.461605
v 0.382687 0.994369 0.000014
v -0.461300 0.935629 -0.191184
v -0.382103 0.994369 0.000014
v -0.270102 0.994369 0.270408
v 0.000291 0.994369 -0.382381
v -0.190906 0.935629 -0.461578
v 0.270686 0.994369 -0.270380
v 0.461883 0.935629 -0.191184
v 0.270686 0.994369 0.270408
v 0.461884 0.935629 0.191211
v -0.190905 0.935629 0.461606
v 0.000292 0.994369 0.382409
v -0.348426 0.450520 -0.144430
v -0.144152 0.450520 -0.348704
v 0.144736 0.450520 -0.348704
v 0.349010 0.450520 -0.144430
v 0.349010 0.450520 0.144458
v 0.144736 0.450520 0.348732
v -0.144152 0.450520 0.348732
v -0.348426 0.450520 0.144458
v -0.626092 0.696044 0.259471
v -0.683439 0.739372 0.237804
v -0.643023 0.768810 0.266484
v -0.651322 0.739372 0.315342
v -0.626093 0.696044 -0.259443
v -0.651323 0.739372 -0.315314
v -0.643024 0.768810 -0.266456
v -0.683440 0.739372 -0.237776
v 0.259750 0.696044 0.626398
v 0.266763 0.768810 0.643329
v 0.626677 0.696044 0.259471
v 0.315620 0.739372 0.651628
v 0.651907 0.739372 0.315342
v 0.643608 0.768810 0.266484
v 0.626676 0.696044 -0.259443
v 0.684024 0.739372 0.237804
v 0.684023 0.739372 -0.237777
v 0.643607 0.768810 -0.266457
v 0.259749 0.696044 -0.626371
v 0.651906 0.739372 -0.315314
v 0.315620 0.739372 -0.651601
v 0.266762 0.768810 -0.643302
v -0.259165 0.696044 -0.626370
v 0.238082 0.739372 -0.683718
v -0.237499 0.739372 -0.683717
v -0.266179 0.768810 -0.643301
v -0.315036 0.739372 -0.651600
v 0.238083 0.739372 0.683745
v -0.237498 0.739372 0.683745
v -0.259165 0.696044 0.626398
v -0.315036 0.739372 0.651628
v -0.266178 0.768810 0.643329
vn -0.0000 1.0000 -0.0000
vn 0.1426 0.9280 0.3442
vn 0.3442 0.9280 0.1426
vn 0.4174 0.8071 0.4174
vn 0.3711 -0.2442 0.8959
vn 0.4474 -0.7744 0.4474
vn 0.3442 0.9280 -0.1426
vn 0.5904 0.8071 -0.0000
vn 0.8959 -0.2442 0.3711
vn 0.6327 -0.7744 -0.0000
vn 0.1426 0.9280 -0.3442
vn 0.4174 0.8071 -0.4174
vn 0.8959 -0.2442 -0.3711
vn 0.4474 -0.7744 -0.4474
vn -0.1426 0.9280 -0.3442
vn -0.0000 0.8071 -0.5904
vn 0.3711 -0.2442 -0.8959
vn -0.0000 -0.7744 -0.6327
vn -0.3442 0.9280 -0.1426
vn -0.4174 0.8071 -0.4174
vn -0.3711 -0.2442 -0.8959
vn -0.4474 -0.7744 -0.4474
vn -0.3442 0.9280 0.1426
vn -0.5904 0.8071 -0.0000
vn -0.6327 -0.7744 -0.0000
vn -0.8959 -0.2442 -0.3711
vn -0.1426 0.9280 0.3442
vn -0.0000 0.8071 0.5904
vn -0.3711 -0.2442 0.8959
vn -0.0000 -0.7744 0.6327
vn -0.4174 0.8071 0.4174
vn -0.8959 -0.2442 0.3711
vn -0.4474 -0.7744 0.4474
vn -0.5439 0.7564 0.3634
vn -0.6415 0.7564 0.1276
vn -0.6277 -0.7684 0.1249
vn -0.5321 -0.7684 0.3556
vn -0.6415 0.7564 -0.1276
vn -0.5439 0.7564 -0.3634
vn -0.5321 -0.7684 -0.3556
vn -0.6277 -0.7684 -0.1249
vn -0.3634 0.7564 -0.5439
vn -0.1276 0.7564 -0.6415
vn -0.1249 -0.7684 -0.6277
vn -0.3556 -0.7684 -0.5321
vn 0.1276 0.7564 -0.6415
vn 0.3634 0.7564 -0.5439
vn 0.3556 -0.7684 -0.5321
vn 0.1249 -0.7684 -0.6277
vn 0.5439 0.7564 -0.3634
vn 0.6415 0.7564 -0.1276
vn 0.6277 -0.7684 -0.1249
vn 0.5321 -0.7684 -0.3556
vn 0.6415 0.7564 0.1276
vn 0.5439 0.7564 0.3634
vn 0.5321 -0.7684 0.3556
vn 0.6277 -0.7684 0.1249
vn 0.3634 0.7564 0.5439
vn 0.1276 0.7564 0.6415
vn 0.1249 -0.7684 0.6277
vn 0.3556 -0.7684 0.5321
vn -0.1276 0.7564 0.6415
vn -0.3634 0.7564 0.5439
vn -0.3556 -0.7684 0.5321
vn -0.1249 -0.7684 0.6277
vt 0.272940 0.145285
vt 0.394904 0.169545
vt 0.463991 0.272941
vt 0.439731 0.394904
vt 0.336335 0.463992
vt 0.214372 0.439732
vt 0.145285 0.336336
vt 0.169545 0.214372
vt 0.346052 0.096433
vt 0.481146 0.186699
vt 0.477201 0.046378
vt 0.164074 0.719413
vt 0.163777 0.748111
vt 0.135903 0.741276
vt 0.144229 0.722923
vt 0.162368 0.931255
vt 0.059096 0.807098
vt 0.244921 0.852665
vt 0.346830 0.983974
vt 0.512843 0.346053
vt 0.609276 0.244041
vt 0.947895 0.559865
vt 0.972251 0.557765
vt 0.962752 0.587988
vt 0.948555 0.568359
vt 0.870342 0.801153
vt 0.872320 0.609832
vt 0.966962 0.740688
vt 0.972251 0.932462
vt 0.422577 0.481146
vt 0.562899 0.477201
vt 0.769650 0.671411
vt 0.789494 0.667900
vt 0.789198 0.696598
vt 0.761324 0.689763
vt 0.787789 0.879744
vt 0.684516 0.755586
vt 0.263224 0.512844
vt 0.365235 0.609276
vt 0.617356 0.816395
vt 0.625421 0.819143
vt 0.640912 0.837767
vt 0.609276 0.839468
vt 0.719345 0.353354
vt 0.715403 0.557765
vt 0.609277 0.373677
vt 0.609276 0.179164
vt 0.128131 0.422578
vt 0.132075 0.562899
vt 0.823189 0.509744
vt 0.806396 0.522714
vt 0.806987 0.492052
vt 0.836205 0.504818
vt 0.798871 0.259856
vt 0.914130 0.438460
vt 0.096433 0.263224
vt -0.000000 0.365235
vt 0.801269 0.147952
vt 1.000000 0.223164
vt 0.969898 0.337259
vt 0.967124 0.350897
vt 0.949835 0.324106
vt 0.980005 0.318602
vt 0.186699 0.128131
vt 0.244041 0.000000
vt 0.322474 0.611377
vt 0.346830 0.609277
vt 0.337331 0.639500
vt 0.323135 0.619871
vt 0.246900 0.661344
vt 0.341542 0.792199
vt 0.046378 0.132075
vt 0.974322 0.130819
vt 0.983952 0.134381
vt 0.954143 0.123099
vt 0.972359 0.106606
vt 0.725134 0.083195
vt 0.922712 0.037994
vt 0.014465 0.246920
vt 0.006957 0.227247
vt 0.000000 0.262222
vt 0.058641 0.469009
vt 0.039422 0.460407
vt 0.059233 0.490057
vt 0.246919 0.594812
vt 0.227247 0.602320
vt 0.262221 0.609276
vt 0.469009 0.550635
vt 0.460407 0.569855
vt 0.490057 0.550044
vt 0.625196 0.556171
vt 0.609277 0.528558
vt 0.594811 0.362357
vt 0.602320 0.382029
vt 0.609276 0.347055
vt 0.550635 0.140268
vt 0.569855 0.148869
vt 0.550043 0.119219
vt 0.015491 0.889279
vt 0.000000 0.870655
vt 0.362357 0.014465
vt 0.382029 0.006957
vt 0.347055 -0.000000
vt 0.140268 0.058642
vt 0.148869 0.039422
vt 0.119219 0.059233
vt 0.817386 0.006780
vt 0.847023 0.000000
s 0
usemtl Material.001
f 25/1/1 22/2/1 14/3/1 20/4/1 18/5/1 12/6/1 16/7/1 17/8/1
f 22/2/2 25/1/2 13/9/2
f 22/2/3 23/10/3 14/3/3
f 23/10/4 22/2/4 13/9/4 5/11/4
f 61/12/5 42/13/5 45/14/5 43/15/5
f 30/16/6 5/17/6 31/18/6 9/19/6
f 21/20/7 20/4/7 14/3/7
f 23/10/8 4/21/8 21/20/8 14/3/8
f 47/22/9 46/23/9 44/24/9 49/25/9
f 29/26/10 4/27/10 30/28/10 9/29/10
f 18/5/11 20/4/11 11/30/11
f 11/30/12 20/4/12 21/20/12 3/31/12
f 51/32/13 50/33/13 48/34/13 53/35/13
f 28/36/14 3/37/14 29/26/14 9/29/14
f 18/5/15 19/38/15 12/6/15
f 19/38/16 18/5/16 11/30/16 2/39/16
f 55/40/17 54/41/17 52/42/17 57/43/17
f 27/44/18 2/45/18 28/46/18 9/47/18
f 15/48/19 16/7/19 12/6/19
f 19/38/20 1/49/20 15/48/20 12/6/20
f 59/50/21 58/51/21 56/52/21 60/53/21
f 26/54/22 1/55/22 27/44/22 9/47/22
f 17/8/23 16/7/23 10/56/23
f 10/56/24 16/7/24 15/48/24 8/57/24
f 33/58/25 8/59/25 26/54/25 9/47/25
f 40/60/26 39/61/26 38/62/26 41/63/26
f 24/64/27 25/1/27 17/8/27
f 13/9/28 25/1/28 24/64/28 6/65/28
f 65/66/29 64/67/29 63/68/29 62/69/29
f 31/18/30 6/70/30 32/71/30 9/19/30
f 10/56/31 7/72/31 24/64/31 17/8/31
f 36/73/32 35/74/32 34/75/32 37/76/32
f 32/77/33 7/78/33 33/58/33 9/47/33
f 10/56/34 36/79/34 37/80/34 7/72/34
f 35/81/35 36/79/35 10/56/35 8/57/35
f 8/59/36 33/58/36 34/75/36 35/74/36
f 33/58/37 7/78/37 37/76/37 34/75/37
f 15/48/38 40/82/38 41/83/38 8/57/38
f 39/84/39 40/82/39 15/48/39 1/49/39
f 1/55/40 26/54/40 38/62/40 39/61/40
f 26/54/41 8/59/41 41/63/41 38/62/41
f 19/38/42 59/85/42 60/86/42 1/49/42
f 58/87/43 59/85/43 19/38/43 2/39/43
f 2/45/44 27/44/44 56/52/44 58/51/44
f 27/44/45 1/55/45 60/53/45 56/52/45
f 11/30/46 55/88/46 57/89/46 2/39/46
f 54/90/47 55/88/47 11/30/47 3/31/47
f 3/37/48 28/36/48 52/42/48 54/41/48
f 28/46/49 2/45/49 57/91/49 52/92/49
f 21/20/50 51/93/50 53/94/50 3/31/50
f 50/95/51 51/93/51 21/20/51 4/21/51
f 4/27/52 29/26/52 48/34/52 50/33/52
f 29/26/53 3/37/53 53/35/53 48/34/53
f 23/10/54 47/96/54 49/97/54 4/21/54
f 46/98/55 47/96/55 23/10/55 5/11/55
f 5/17/56 30/16/56 44/99/56 46/100/56
f 30/28/57 4/27/57 49/25/57 44/24/57
f 13/9/58 43/101/58 45/102/58 5/11/58
f 61/103/59 43/101/59 13/9/59 6/65/59
f 6/70/60 31/18/60 42/13/60 61/12/60
f 31/18/61 5/17/61 45/14/61 42/13/61
f 24/64/62 65/104/62 62/105/62 6/65/62
f 64/106/63 65/104/63 24/64/63 7/72/63
f 7/78/64 32/77/64 63/107/64 64/108/64
f 32/71/65 6/70/65 62/69/65 63/68/65
