# Blender 4.0.2
# www.blender.org
mtllib startIndicator.mtl
o Cube
v 0.500000 0.500000 0.419721
v 0.500000 -0.500000 0.419721
v -0.500000 0.500000 0.419721
v -0.500000 -0.500000 0.419721
v 0.500000 0.500000 -1.580279
v 0.500000 -0.500000 -1.580279
v -0.500000 0.500000 -1.580279
v -0.500000 -0.500000 -1.580279
v 0.950108 0.950108 0.504428
v 0.950108 -0.950108 0.504428
v -0.950108 0.950108 0.504428
v -0.950108 -0.950108 0.504428
v 0.065490 0.065490 1.834399
v 0.065490 -0.065490 1.834399
v -0.065490 0.065490 1.834399
v -0.065490 -0.065490 1.834399
vn -0.0000 1.0000 -0.0000
vn -1.0000 -0.0000 -0.0000
vn -0.0000 -0.0000 -1.0000
vn -0.0000 -1.0000 -0.0000
vn -0.0000 0.1849 -0.9827
vn 1.0000 -0.0000 -0.0000
vn -0.0000 0.8326 0.5538
vn -0.1849 -0.0000 -0.9827
vn 0.1849 -0.0000 -0.9827
vn -0.0000 -0.1849 -0.9827
vn -0.0000 -0.0000 1.0000
vn 0.8326 -0.0000 0.5538
vn -0.0000 -0.8326 0.5538
vn -0.8326 -0.0000 0.5538
vt 0.625000 0.500000
vt 0.875000 0.500000
vt 0.875000 0.750000
vt 0.625000 0.750000
vt 0.375000 0.750000
vt 0.625000 1.000000
vt 0.375000 1.000000
vt 0.375000 0.000000
vt 0.625000 0.000000
vt 0.625000 0.250000
vt 0.375000 0.250000
vt 0.125000 0.500000
vt 0.375000 0.500000
vt 0.125000 0.750000
s 0
usemtl Material
f 1/1/1 5/2/1 7/3/1 3/4/1
f 4/5/2 3/4/2 7/6/2 8/7/2
f 8/8/3 7/9/3 5/10/3 6/11/3
f 6/12/4 2/13/4 4/5/4 8/14/4
f 1/1/5 3/4/5 11/4/5 9/1/5
f 6/11/6 5/10/6 1/1/6 2/13/6
f 9/1/7 11/4/7 15/4/7 13/1/7
f 3/4/8 4/5/8 12/5/8 11/4/8
f 2/13/9 1/1/9 9/1/9 10/13/9
f 4/5/10 2/13/10 10/13/10 12/5/10
f 14/13/11 13/1/11 15/4/11 16/5/11
f 10/13/12 9/1/12 13/1/12 14/13/12
f 12/5/13 10/13/13 14/13/13 16/5/13
f 11/4/14 12/5/14 16/5/14 15/4/14
