# Blender 4.0.2
# www.blender.org
mtllib finishFlag.mtl
o Cube.001
v 0.031925 2.774781 -0.031925
v 0.031925 -0.230195 -0.031925
v 0.031925 2.774781 0.031925
v 0.031925 -0.230195 0.031925
v -0.031925 2.774781 -0.031925
v -0.031925 -0.230195 -0.031925
v -0.031925 2.774781 0.031925
v -0.031925 -0.230195 0.031925
v 0.024819 2.328256 -0.293686
v -0.031925 2.195805 0.031925
v 0.031925 2.195805 0.031925
v -0.024819 2.593158 -0.293686
v -0.031925 2.725608 0.031925
v 0.024819 2.593158 -0.293686
v 0.031925 2.725608 0.031925
v -0.024819 2.328256 -0.293686
v 0.031925 2.725608 -0.031925
v 0.031925 2.195805 -0.031925
v -0.031925 2.725608 -0.031925
v -0.031925 2.195805 -0.031925
v 0.031925 2.460707 -0.031925
v 0.031925 2.460707 0.031925
v -0.031925 2.460707 -0.031925
v -0.031925 2.460707 0.031925
v 0.017714 2.460707 -0.555447
v -0.017714 2.460707 -0.555447
v -0.024870 2.460707 -0.291831
v 0.024819 2.460707 -0.293691
v 0.025497 2.315625 -0.268724
v -0.024920 2.326373 -0.289964
v 0.028372 2.659383 -0.162805
v -0.028372 2.659383 -0.162805
v -0.028397 2.460707 -0.161878
v 0.028372 2.460707 -0.162808
v 0.028711 2.255715 -0.150324
v -0.028422 2.261089 -0.160944
v 0.021266 2.526932 -0.424566
v -0.021266 2.526932 -0.424566
v 0.021235 2.395075 -0.425740
v 0.021250 2.460707 -0.425164
v -0.021240 2.460707 -0.425558
v -0.021213 2.395478 -0.426536
v -0.028383 2.570820 -0.162392
v -0.031925 2.574470 -0.031925
v -0.024829 2.567200 -0.293322
v -0.023341 2.565607 -0.348135
v -0.024910 2.353237 -0.290337
v -0.031925 2.347810 -0.031925
v -0.023414 2.354455 -0.345463
v -0.028411 2.350509 -0.161362
v 0.023239 2.563710 -0.351883
v 0.023420 2.354343 -0.345241
v 0.031925 2.348917 -0.031925
v 0.028553 2.351084 -0.156132
v 0.024819 2.353464 -0.293687
v 0.024819 2.566310 -0.293687
v 0.028372 2.572175 -0.162806
v 0.031925 2.578049 -0.031925
vn -0.0000 1.0000 -0.0000
vn -0.0000 -0.0000 1.0000
vn -1.0000 -0.0000 -0.0000
vn -0.0000 -1.0000 -0.0000
vn 1.0000 -0.0000 -0.0000
vn -0.0000 -0.0000 -1.0000
vn -0.0000 0.8923 -0.4515
vn -0.9996 -0.0000 -0.0271
vn 0.9996 -0.0000 -0.0271
vn -0.0000 -0.8923 -0.4515
vt 0.851825 0.807328
vt 0.851825 0.849121
vt 0.810951 0.849121
vt 0.810951 0.807328
vt 0.769158 0.016364
vt 0.769158 0.000000
vt 0.810951 0.000000
vt 0.810951 0.016364
vt -0.000000 0.016364
vt -0.000000 0.000000
vt 0.041784 0.000000
vt 0.041784 0.016364
vt 0.810951 0.890914
vt 0.810951 0.849121
vt 0.851772 0.849121
vt 0.851772 0.890914
vt 0.727374 0.016364
vt 0.727374 0.000000
vt 0.868188 0.849121
vt 0.851825 0.849121
vt 0.851825 0.807328
vt 0.868188 0.807328
vt 0.810951 0.807328
vt 0.852744 0.000000
vt 0.852744 0.807328
vt 0.727374 1.000000
vt 0.727374 0.192672
vt 0.769158 0.192672
vt 0.769158 1.000000
vt -0.000000 1.000000
vt -0.000000 0.192672
vt 0.041784 0.192672
vt 0.041784 1.000000
vt 0.810951 0.192672
vt 0.810951 1.000000
vt 0.892211 0.441988
vt 0.889886 0.530369
vt 0.857395 0.530369
vt 0.855069 0.441988
vt 0.727374 0.104518
vt 0.727374 0.065469
vt 0.769158 0.104518
vt -0.000000 0.104518
vt 0.041784 0.066660
vt 0.041784 0.104518
vt 0.810951 0.104518
vt 0.126875 0.104518
vt 0.211967 0.104518
vt 0.210989 0.140282
vt 0.126538 0.141190
vt 0.384579 0.104518
vt 0.470277 0.082479
vt 0.469886 0.104518
vt 0.299530 0.104518
vt 0.298880 0.082479
vt 0.892433 0.273635
vt 0.855036 0.266462
vt 0.857328 0.179317
vt 0.890329 0.193663
vt 0.889886 0.176803
vt 0.857394 0.176803
vt 0.858314 0.141831
vt 0.888969 0.141981
vt 0.887560 0.618750
vt 0.885235 0.707131
vt 0.862046 0.707131
vt 0.859720 0.618750
vt 0.041784 0.142088
vt 0.727374 0.141720
vt 0.641673 0.104518
vt 0.646044 0.140998
vt 0.555976 0.140206
vt 0.555973 0.104518
vt 0.213181 0.060441
vt 0.212943 0.069079
vt 0.127212 0.067874
vt 0.127483 0.038402
vt 0.641674 0.067423
vt 0.522219 0.139914
vt 0.469509 0.126359
vt 0.210744 0.149222
vt 0.247084 0.139877
vt 0.213181 0.148595
vt 0.555976 0.069375
vt 0.894537 0.353606
vt 0.852744 0.353606
vt 0.894537 0.353606
vt 0.852744 0.353606
vt 0.888852 0.569668
vt 0.858362 0.567137
vt 0.517869 0.070240
vt 0.300170 0.126225
vt 0.248834 0.069609
vt 0.887539 0.087609
vt 0.859755 0.087071
vt 0.862045 0.000000
vt 0.885234 0.000000
vt 0.126264 0.170947
vt 0.555976 0.148595
vt 0.649847 0.172735
vt 0.572321 0.152798
vt 0.641675 0.038402
vt 0.555976 0.060441
s 0
usemtl Material.004
f 1/1/1 5/2/1 7/3/1 3/4/1
f 15/5/2 3/6/2 7/7/2 13/8/2
f 13/9/3 7/10/3 5/11/3 19/12/3
f 6/13/4 2/14/4 4/15/4 8/16/4
f 17/17/5 1/18/5 3/6/5 15/5/5
f 19/19/6 5/20/6 1/21/6 17/22/6
f 6/23/6 20/7/6 18/24/6 2/25/6
f 2/26/5 18/27/5 11/28/5 4/29/5
f 8/30/3 10/31/3 20/32/3 6/33/3
f 4/29/2 11/28/2 10/34/2 8/35/2
f 31/36/7 14/37/7 12/38/7 32/39/7
f 21/40/5 58/41/5 17/17/5 15/5/5 22/42/5
f 24/43/3 13/9/3 19/12/3 44/44/3 23/45/3
f 22/42/2 15/5/2 13/8/2 24/46/2
f 33/47/8 27/48/8 47/49/8 50/50/8
f 25/51/9 37/52/9 40/53/9
f 26/51/8 41/54/8 38/55/8
f 35/56/10 36/57/10 30/58/10 29/59/10
f 9/60/10 16/61/10 49/62/10 52/63/10
f 37/64/7 25/65/7 26/66/7 38/67/7
f 11/28/2 22/42/2 24/46/2 10/34/2
f 10/31/3 24/43/3 23/45/3 48/68/3 20/32/3
f 18/27/5 53/69/5 21/40/5 22/42/5 11/28/5
f 34/70/9 54/71/9 55/72/9 28/73/9
f 12/74/8 45/75/8 43/76/8 32/77/8
f 34/70/9 57/78/9 58/41/9 21/40/9
f 28/73/9 55/72/9 52/79/9 39/80/9 40/53/9
f 32/77/8 43/76/8 44/44/8 19/12/8
f 29/59/10 30/58/10 16/61/10 9/60/10
f 30/81/8 47/49/8 49/82/8 16/83/8
f 28/73/9 56/84/9 57/78/9 34/70/9
f 21/40/9 53/69/9 54/71/9 34/70/9
f 18/85/10 20/86/10 36/57/10 35/56/10
f 23/45/8 33/47/8 50/50/8 48/68/8
f 17/87/7 31/36/7 32/39/7 19/88/7
f 14/37/7 51/89/7 46/90/7 12/38/7
f 40/53/9 37/52/9 51/91/9 56/84/9 28/73/9
f 42/92/8 41/54/8 26/51/8
f 40/53/9 39/80/9 25/51/9
f 38/55/8 41/54/8 27/48/8 45/75/8 46/93/8
f 39/94/10 42/95/10 26/96/10 25/97/10
f 46/93/8 45/75/8 12/74/8
f 44/44/8 43/76/8 33/47/8 23/45/8
f 43/76/8 45/75/8 27/48/8 33/47/8
f 49/82/8 47/49/8 27/48/8 41/54/8 42/92/8
f 48/68/8 50/50/8 36/98/8 20/32/8
f 50/50/8 47/49/8 30/81/8 36/98/8
f 46/90/7 51/89/7 37/64/7 38/67/7
f 52/63/10 49/62/10 42/95/10 39/94/10
f 52/79/9 55/72/9 9/99/9
f 55/72/9 54/71/9 35/100/9 29/101/9 9/99/9
f 54/71/9 53/69/9 18/27/9 35/100/9
f 58/41/9 57/78/9 31/102/9 17/17/9
f 57/78/9 56/84/9 14/103/9 31/102/9
f 56/84/9 51/91/9 14/103/9
